<?xml version="1.0" standalone="no"?>
<!DOCTYPE svg PUBLIC "-//W3C//DTD SVG 20010904//EN"
 "http://www.w3.org/TR/2001/REC-SVG-20010904/DTD/svg10.dtd">
<svg version="1.0" xmlns="http://www.w3.org/2000/svg"
 width="700.000000pt" height="700.000000pt" viewBox="0 0 700.000000 700.000000"
 preserveAspectRatio="xMidYMid meet">
<metadata>
Created by potrace 1.11, written by Peter Selinger 2001-2013
</metadata>
<g transform="translate(0.000000,700.000000) scale(0.100000,-0.100000)"
fill="#000000" stroke="none">
<path d="M2976 4918 c0 -1056 -4 -1745 -9 -1763 -22 -69 -108 -126 -231 -151
-217 -45 -350 -12 -478 118 l-68 68 0 1251 0 1251 -47 -63 c-26 -35 -87 -105
-137 -155 -207 -205 -413 -327 -760 -447 l-68 -24 83 -27 c46 -15 111 -41 145
-57 59 -29 132 -90 136 -113 0 -6 2 -375 3 -821 2 -445 5 -826 8 -845 23 -134
108 -256 244 -346 97 -64 203 -106 486 -189 l97 -29 0 -672 c0 -749 1 -740
-72 -890 -42 -87 -148 -197 -235 -242 -65 -34 -183 -68 -267 -78 -61 -6 -311
-6 -344 0 -13 3 -51 8 -85 11 -144 15 -332 71 -457 138 -121 64 -204 132 -284
232 -27 33 -51 62 -54 65 -10 11 8 -183 24 -242 43 -166 145 -289 317 -381 60
-32 239 -98 308 -113 39 -8 170 -32 219 -38 72 -11 312 -6 428 8 28 3 76 8
105 12 28 3 66 9 82 14 17 4 46 11 65 14 59 10 73 13 133 31 417 121 690 396
723 728 1 9 2 347 3 750 l1 732 83 24 c45 13 86 28 91 33 6 4 16 8 22 8 20 0
142 59 201 97 71 45 136 113 162 169 50 104 49 75 49 1456 0 713 3 1309 7
1326 7 35 65 91 122 120 42 22 169 66 221 77 31 6 45 25 18 25 -12 0 -31 7
-156 62 -64 28 -209 101 -250 126 -19 12 -44 26 -55 31 -33 15 -205 139 -283
205 -40 33 -109 100 -154 148 -45 49 -85 88 -88 88 -3 0 -5 -780 -4 -1732z"/>
<path d="M5390 5618 c-70 -64 -179 -110 -445 -188 -139 -40 -317 -118 -365
-159 -73 -62 -114 -112 -143 -171 l-31 -65 -3 -645 c-2 -355 -5 -1131 -7
-1725 -4 -1055 -4 -1082 -25 -1163 -57 -224 -203 -390 -445 -502 -90 -42 -211
-85 -269 -96 -84 -15 8 -26 208 -25 140 1 157 2 250 16 70 11 72 11 145 30
239 61 441 189 591 375 71 88 140 244 155 350 3 19 8 51 11 70 3 19 7 235 9
480 2 521 1 475 17 463 6 -5 39 -20 72 -33 126 -49 273 -131 301 -169 10 -13
16 -11 43 11 47 40 128 75 331 144 388 131 553 244 609 419 19 58 20 98 20
1021 1 851 -1 967 -15 1015 -48 162 -211 277 -529 373 -232 71 -343 123 -404
190 -14 14 -27 26 -30 26 -3 -1 -26 -19 -51 -42z m246 -543 c82 -19 125 -46
154 -97 20 -36 20 -42 18 -925 -3 -984 1 -924 -68 -973 -70 -50 -135 -64 -295
-64 -198 -1 -293 23 -357 91 -56 59 -55 36 -53 953 1 465 3 859 3 875 4 75
107 136 252 151 30 4 56 7 58 9 9 8 231 -7 288 -20z"/>
</g>
</svg>
